<svg width="26" height="26" viewBox="0 0 26 26" fill="none" xmlns="http://www.w3.org/2000/svg">
<path d="M18.9042 24.6457C17.68 24.6457 16.3908 24.3532 15.0583 23.7898C13.7583 23.2373 12.4475 22.479 11.1692 21.5582C9.90166 20.6265 8.67749 19.5865 7.51832 18.449C6.36999 17.2898 5.32999 16.0657 4.40916 14.809C3.47749 13.509 2.72999 12.209 2.19916 10.9523C1.63582 9.609 1.35416 8.309 1.35416 7.08484C1.35416 6.23984 1.50582 5.43817 1.79832 4.69067C2.10166 3.9215 2.58916 3.2065 3.24999 2.589C4.08416 1.76567 5.03749 1.354 6.05582 1.354C6.47832 1.354 6.91166 1.4515 7.27999 1.62484C7.70249 1.81984 8.05999 2.11234 8.31999 2.50234L10.8333 6.04484C11.0608 6.359 11.2342 6.66234 11.3533 6.96567C11.4942 7.29067 11.57 7.61567 11.57 7.92984C11.57 8.3415 11.4508 8.74234 11.2233 9.1215C11.0608 9.414 10.8117 9.72817 10.4975 10.0423L9.76082 10.8115C9.77166 10.844 9.78249 10.8657 9.79332 10.8873C9.92332 11.1148 10.1833 11.5048 10.6817 12.0898C11.2125 12.6965 11.7108 13.249 12.2092 13.7582C12.8483 14.3865 13.3792 14.8848 13.8775 15.2965C14.495 15.8165 14.8958 16.0765 15.1342 16.1957L15.1125 16.2498L15.9033 15.4698C16.2392 15.134 16.5642 14.8848 16.8783 14.7223C17.4742 14.354 18.2325 14.289 18.9908 14.6032C19.2725 14.7223 19.5758 14.8848 19.9008 15.1123L23.4975 17.669C23.8983 17.9398 24.1908 18.2865 24.3642 18.6982C24.5267 19.1098 24.6025 19.489 24.6025 19.8682C24.6025 20.3882 24.4833 20.9082 24.2558 21.3957C24.0283 21.8832 23.7467 22.3057 23.3892 22.6957C22.7717 23.3782 22.1 23.8657 21.32 24.1798C20.5725 24.4832 19.76 24.6457 18.9042 24.6457ZM6.05582 2.979C5.45999 2.979 4.90749 3.239 4.37666 3.759C3.87832 4.22484 3.53166 4.734 3.31499 5.2865C3.08749 5.84984 2.97916 6.44567 2.97916 7.08484C2.97916 8.09234 3.21749 9.1865 3.69416 10.3132C4.18166 11.4615 4.86416 12.6532 5.73082 13.8448C6.59749 15.0365 7.58332 16.1957 8.66666 17.2898C9.74999 18.3623 10.92 19.359 12.1225 20.2365C13.2925 21.0923 14.495 21.7857 15.6867 22.284C17.5392 23.0748 19.2725 23.259 20.7025 22.6632C21.255 22.4357 21.7425 22.089 22.1867 21.5907C22.4358 21.3198 22.6308 21.0273 22.7933 20.6807C22.9233 20.4098 22.9883 20.1282 22.9883 19.8465C22.9883 19.6732 22.9558 19.4998 22.8692 19.3048C22.8367 19.2398 22.7717 19.1207 22.5658 18.9798L18.9692 16.4232C18.7525 16.2715 18.5575 16.1632 18.3733 16.0873C18.135 15.9898 18.0375 15.8923 17.6692 16.1198C17.4525 16.2282 17.2575 16.3907 17.0408 16.6073L16.2175 17.4198C15.795 17.8315 15.145 17.929 14.6467 17.7448L14.3542 17.6148C13.91 17.3765 13.39 17.0082 12.8158 16.5207C12.2958 16.0765 11.7325 15.5565 11.05 14.8848C10.5192 14.3432 9.98832 13.769 9.43582 13.1298C8.92666 12.534 8.55832 12.0248 8.33082 11.6023L8.20082 11.2773C8.13582 11.0282 8.11416 10.8873 8.11416 10.7357C8.11416 10.3457 8.25499 9.999 8.52582 9.72817L9.33832 8.88317C9.55499 8.6665 9.71749 8.46067 9.82582 8.2765C9.91249 8.13567 9.94499 8.0165 9.94499 7.90817C9.94499 7.8215 9.91249 7.6915 9.85832 7.5615C9.78249 7.38817 9.66332 7.19317 9.51166 6.98734L6.99832 3.434C6.88999 3.28234 6.75999 3.174 6.59749 3.09817C6.42416 3.02234 6.23999 2.979 6.05582 2.979ZM15.1125 16.2607L14.9392 16.9973L15.2317 16.239C15.1775 16.2282 15.1342 16.239 15.1125 16.2607Z" fill="#010101"/>
</svg>
