<svg width="180" height="99" viewBox="0 0 302 99" fill="none" xmlns="http://www.w3.org/2000/svg">
<path d="M2.27236 97.3143C4.37895 99.3731 7.75561 99.3342 9.81433 97.2276C11.8731 95.121 11.8342 91.7444 9.72764 89.6857C7.62105 87.6269 4.24439 87.6658 2.18567 89.7724C0.126948 91.879 0.16576 95.2556 2.27236 97.3143ZM6.71519 94.1989L49.7152 50.1989L48.2848 48.8011L5.28481 92.8011L6.71519 94.1989Z" fill="#414141"/>
<path d="M292.272 9.31433C294.379 11.3731 297.756 11.3342 299.814 9.22765C301.873 7.12105 301.834 3.74439 299.728 1.68567C297.621 -0.373048 294.244 -0.334239 292.186 1.77236C290.127 3.87896 290.166 7.25561 292.272 9.31433ZM253.715 50.1989L296.715 6.19894L295.285 4.80107L252.285 48.8011L253.715 50.1989Z" fill="#414141"/>
<line x1="48" y1="49.5" x2="254" y2="49.5" stroke="#414141" stroke-width="2"/>
</svg>
