<?xml version="1.0" encoding="utf-8"?>
<!-- Generator: Adobe Illustrator 26.1.0, SVG Export Plug-In . SVG Version: 6.00 Build 0)  -->
<svg version="1.1" id="Layer_1" xmlns="http://www.w3.org/2000/svg" xmlns:xlink="http://www.w3.org/1999/xlink" x="0px" y="0px"
	 viewBox="0 0 3000 3000" style="enable-background:new 0 0 3000 3000;" xml:space="preserve">
<style type="text/css">
	.st0{fill:#E00C1A;}
</style>
<g>
	<path class="st0" d="M2313,578.3c-63.6-53.2-126.2-84.7-187.6-94.8c-61.4-10-121.8-0.6-181.1,28.1
		c-59.2,28.8-117.6,71.9-175.1,129.4l-485.7,485.7l-22.4-36.2c-5.3-8.7-10.6-17.1-15.8-25.2c-49.2-76.4-96.4-131-141.7-163.7
		c-50.1-36.1-100.9-51.1-152.3-45c-51.4,6.1-105.7,30.2-162.7,72.6c-57.1,42.3-120,97.8-188.9,166.7
		c-68.8,68.8-125.9,134.2-171.2,196c-45.3,61.9-76.1,124.4-92.2,187.6c-16.1,63.2-16.3,129.7-0.6,199.4
		c15.7,69.7,50.1,147.7,103.2,234l234,377.8c53.2,86.3,104.5,147.3,154.2,183s100.6,51,152.9,45.7c52.3-5.2,107.1-28.3,164.7-69.2
		c57.5-41,120.7-95.9,189.5-164.7c68.8-68.8,126.1-133.6,171.9-194.1c45.7-60.5,77.3-122.2,94.7-184.9c17.4-62.8,17.9-129.4,1.3-200
		c-15.6-66.9-48.5-141.6-98.7-224.1l-263.1,263.1c17.1,33.4,21.8,69.3,14.2,107.3c-8.7,43.6-40.5,92.8-95.4,147.7
		c-54.9,54.9-100,82.6-135.3,83c-35.2,0.4-64.7-18-88.2-55.5l-234-377.8c-23.5-37.5-30.9-78-22.2-121.6
		c8.8-43.6,40.6-92.8,95.5-147.7c55.8-55.8,101.1-83.6,135.9-83.7c26.6,0,50,10.9,69.9,32.8c6.3,6.7,12.1,14.5,17.7,23.4l22.4,36.2
		l182,293.8l329.9-329.9l518.9,835.3l417-417c57.5-57.5,104.3-119.6,140.5-186.3c36.1-66.6,57.7-139.2,64.7-217.7
		c6.9-78.4-2.4-163.1-28.1-254.2c-25.7-91.1-71.7-189.7-137.9-296.1C2441.5,711.2,2376.7,631.5,2313,578.3z M2243.7,1081.5
		c57.6,92.4,85,175.2,82.4,248.4c-2.6,73.2-35.3,141.1-98.1,203.9l-96.7,96.7l-333.4-539.9l96.8-96.8
		c62.7-62.7,122.2-86.9,178.4-72.5C2129.4,935.8,2186.2,989.2,2243.7,1081.5z"/>
</g>
</svg>
