<svg width="26" height="26" viewBox="0 0 26 26" fill="none" xmlns="http://www.w3.org/2000/svg">
<path d="M13 15.3507C10.6925 15.3507 8.8075 13.4766 8.8075 11.1582C8.8075 8.8399 10.6925 6.97656 13 6.97656C15.3075 6.97656 17.1925 8.85073 17.1925 11.1691C17.1925 13.4874 15.3075 15.3507 13 15.3507ZM13 8.60156C11.5917 8.60156 10.4325 9.7499 10.4325 11.1691C10.4325 12.5882 11.5808 13.7366 13 13.7366C14.4192 13.7366 15.5675 12.5882 15.5675 11.1691C15.5675 9.7499 14.4083 8.60156 13 8.60156Z" fill="#414141"/>
<path d="M13 24.6565C11.3967 24.6565 9.78251 24.0498 8.52584 22.8473C5.33001 19.7707 1.79834 14.8632 3.13084 9.024C4.33334 3.7265 8.95917 1.354 13 1.354C13 1.354 13 1.354 13.0108 1.354C17.0517 1.354 21.6775 3.7265 22.88 9.03484C24.2017 14.874 20.67 19.7707 17.4742 22.8473C16.2175 24.0498 14.6033 24.6565 13 24.6565ZM13 2.979C9.84751 2.979 5.79584 4.65817 4.72334 9.3815C3.55334 14.484 6.76001 18.8823 9.66334 21.6665C11.5375 23.4757 14.4733 23.4757 16.3475 21.6665C19.24 18.8823 22.4467 14.484 21.2983 9.3815C20.215 4.65817 16.1525 2.979 13 2.979Z" fill="#414141"/>
</svg>
